<?xml version="1.0" standalone="no"?><!DOCTYPE svg PUBLIC "-//W3C//DTD SVG 1.1//EN" "http://www.w3.org/Graphics/SVG/1.1/DTD/svg11.dtd"><svg t="1693832775124" class="icon" viewBox="0 0 1024 1024" version="1.1" xmlns="http://www.w3.org/2000/svg" p-id="12802" xmlns:xlink="http://www.w3.org/1999/xlink" width="128" height="128"><path d="M554.666667 896a42.666667 42.666667 0 0 1-42.666667 42.666667H341.333333a213.589333 213.589333 0 0 1-213.333333-213.333334V298.666667a213.589333 213.589333 0 0 1 213.333333-213.333334h170.666667a42.666667 42.666667 0 0 1 0 85.333334H341.333333a128 128 0 0 0-128 128v426.666666a128 128 0 0 0 128 128h170.666667a42.666667 42.666667 0 0 1 42.666667 42.666667z m338.048-367.701333a42.666667 42.666667 0 0 0 0-32.597334 43.392 43.392 0 0 0-9.258667-13.909333l-170.666667-170.666667a42.666667 42.666667 0 1 0-60.330666 60.330667L750.378667 469.333333H426.666667a42.666667 42.666667 0 1 0 0 85.333334h323.669333l-97.834667 97.834666a42.666667 42.666667 0 1 0 60.330667 60.330667l170.666667-170.666667a43.392 43.392 0 0 0 9.258666-13.866666z" fill="" p-id="12803"></path></svg>